<?xml version="1.0" encoding="utf-8"?>
<!-- Generator: Adobe Illustrator 22.1.0, SVG Export Plug-In . SVG Version: 6.00 Build 0)  -->
<svg version="1.1" id="Layer_1" xmlns="http://www.w3.org/2000/svg" xmlns:xlink="http://www.w3.org/1999/xlink" x="0px" y="0px"
	 viewBox="0 0 425.2 283.5" style="enable-background:new 0 0 425.2 283.5;" xml:space="preserve">
<style type="text/css">
	.st0{fill:none;}
	.st1{display:none;fill:#00CE5D;}
	.st2{font-family:'Helvetica-Light';}
	.st3{font-size:216px;}
	.st4{display:none;}
	.st5{font-family:'PingFangSC-Regular-GBpc-EUC-H';}
	.st6{font-size:168px;}
</style>
<rect x="-8" y="120.5" class="st0" width="452" height="247"/>
<text transform="matrix(1 0 0 1 -8 275.9812)" class="st1 st2 st3">EN</text>
<rect x="-8" y="136.3" class="st0" width="379.3" height="172.7"/>
<text transform="matrix(1 0 0 1 -8 258.6303)" class="st4 st5 st6">中文</text>
<g>
	<path d="M82.2,120.7v30.2h60.3v79h-12.1v-10.6H82.2v57.3H69.8v-57.3h-48v10.6H9.6v-79h60.1v-30.2H82.2z M69.8,207.6v-44.9h-48v44.9
		H69.8z M130.4,207.6v-44.9H82.2v44.9H130.4z"/>
	<path d="M240.3,149.8c-4.5-8.9-10.1-17.3-16.8-25.2l12.1-4.4c6.4,8.1,12.1,18,17.5,29.6h64.2v12.1H291
		c-8.2,26.5-20.7,48.9-37.1,66.7c17.8,15.1,40.2,27.6,67,37.5l-6.6,10.1c-27.9-10.4-50.7-23.4-68.9-39c-19.2,17.6-43,30.6-71.6,38.8
		l-6.4-10.6c28.2-7.6,51.4-19.5,69.6-36c-19.5-19.2-32.9-41.7-40.5-67.5h-25.9v-12.1H240.3z M245.5,221c15-16.3,25.9-36,32.9-59.1
		h-69.9C215.8,184.5,228,204.2,245.5,221z"/>
</g>
</svg>
